<?xml version="1.0" encoding="utf-8"?>
<!-- Generator: Adobe Illustrator 19.1.0, SVG Export Plug-In . SVG Version: 6.00 Build 0)  -->
<svg version="1.1" id="Laag_2" xmlns="http://www.w3.org/2000/svg" xmlns:xlink="http://www.w3.org/1999/xlink" x="0px" y="0px"
     viewBox="-475 276.3 8.7 8.7" style="enable-background:new -475 276.3 8.7 8.7;" xml:space="preserve">
<style type="text/css">
    .st0{fill:#D3D3D3;}
    .st1{fill:#FFFFFF;}
</style>
<g>
    <path class="st0" d="M-470.6,284.6c-2.2,0-3.9-1.7-3.9-3.9c0-2.2,1.7-3.9,3.9-3.9c2.2,0,3.9,1.7,3.9,3.9
        C-466.7,282.9-468.4,284.6-470.6,284.6z"/>
    <path class="st1" d="M-470.6,277.3c1.9,0,3.4,1.5,3.4,3.4c0,1.9-1.5,3.4-3.4,3.4c-1.9,0-3.4-1.5-3.4-3.4
        C-474,278.8-472.5,277.3-470.6,277.3 M-470.6,276.3c-2.4,0-4.4,2-4.4,4.4s2,4.4,4.4,4.4s4.4-2,4.4-4.4S-468.2,276.3-470.6,276.3
        L-470.6,276.3z"/>
</g>
</svg>
