<!-- Generator: Adobe Illustrator 19.1.0, SVG Export Plug-In  -->
<svg version="1.1"
     xmlns="http://www.w3.org/2000/svg" xmlns:xlink="http://www.w3.org/1999/xlink" xmlns:a="http://ns.adobe.com/AdobeSVGViewerExtensions/3.0/"
     x="0px" y="0px" width="36px" height="66.5px" viewBox="0 0 36 66.5" style="enable-background:new 0 0 36 66.5;"
     xml:space="preserve">
<style type="text/css">
    .st0{fill:none;stroke:#202020;stroke-width:3;stroke-miterlimit:10;}
    .st1{fill:none;stroke:#202020;stroke-width:3;stroke-linecap:round;stroke-linejoin:round;stroke-miterlimit:10;}
</style>
<defs>
</defs>
<rect x="1.5" y="21.9" class="st0" width="33" height="43.1"/>
<polyline class="st0" points="34.5,21.9 34.5,15 27.8,15 27.8,7.3 22.6,7.3 22.6,1.5 13.4,1.5 13.4,7.3 8.2,7.3 8.2,15 1.5,15
    1.5,21.9 "/>
<g>
    <line class="st1" x1="8.5" y1="28.9" x2="8.5" y2="33.4"/>
    <line class="st1" x1="27.5" y1="28.9" x2="27.5" y2="33.4"/>
    <line class="st1" x1="18" y1="28.9" x2="18" y2="33.4"/>
</g>
<g>
    <line class="st1" x1="8.5" y1="53.2" x2="8.5" y2="57.7"/>
    <line class="st1" x1="27.5" y1="53.2" x2="27.5" y2="57.7"/>
    <line class="st1" x1="18" y1="53.2" x2="18" y2="64.7"/>
</g>
<g>
    <line class="st1" x1="8.5" y1="40.9" x2="8.5" y2="45.4"/>
    <line class="st1" x1="27.5" y1="40.9" x2="27.5" y2="45.4"/>
    <line class="st1" x1="18" y1="40.9" x2="18" y2="45.4"/>
</g>
</svg>
