<?xml version="1.0" encoding="utf-8"?>
<!-- Generator: Adobe Illustrator 19.1.0, SVG Export Plug-In . SVG Version: 6.00 Build 0)  -->
<svg version="1.1" id="Laag_1" pointer-events="none"
	 xmlns="http://www.w3.org/2000/svg" xmlns:xlink="http://www.w3.org/1999/xlink" x="0px" y="0px" viewBox="-250 482.7 700 602.7"
	 style="enable-background:new -250 482.7 700 602.7;" xml:space="preserve">
<style type="text/css">
	.st0{fill:#E2797C;stroke:#FFFFFF;stroke-width:5;stroke-linecap:round;stroke-linejoin:round;}
</style>
<g>
	<path pointer-events="visiblePainted" class="st0" d="M169,864.5l9,8l5-1l104,58l2-2l16,7l-11,13l20,20l51-47l7-4l53-2l16-47l2-28
		l-4-23l-6-12l-13-15l-13-11l-22-13l-51-19l-112-29l-18-2l-22,2l3,18l17,16l8,23v45l-2,4L169,864.5z"/>
	<path pointer-events="visiblePainted" class="st0" d="M67,929.5l40,126l26-11l11-14l4-2l8-2l15,2l6-2l14-11l31-6l13-6l17-4l16-2
		l7-4l5-8l12-10l5-2h8l9-5l-20-21l11-13l-16-7l-2,2l-104-58l-5,1l-9-8l-35,39l-11,9l-7,2L67,929.5z"/>
	<path pointer-events="visiblePainted" class="st0" d="M45,615.5l-12,7l-10,9l-45,58l-49,75l-5,22l-12,82l1,7l17,21l12,8l24,3l9-1
		l9-6l-5-2l-13-17l-4-11v-9l9-45l1-18l2-8l3-5l6-6l53-69l7-7l13,6l25,3l5,3l3,4l16-22l7-15l14-21l-32-9l-47-33L45,615.5z"/>
	<path pointer-events="visiblePainted" class="st0" d="M43,703.5l-7,7l-59,75l-5,13l-1,18l-9,45v9l4,11l13,17l3,2H1l1-4l54-95l10-21
		l11-40l5-11l7-10l-3-4l-5-3l-25-3l-6-2L43,703.5z"/>
	<path pointer-events="visiblePainted" class="st0" d="M1,900.5l10-2l26,2l7,2l14,9l5,5l4,13l56-17l84-88l2-5l1-45l-8-23l-17-16
		l-10-73l-50-1l-36,59l-7,9l-16,51l-10,21l-54,95L1,900.5z"/>
	<path pointer-events="visiblePainted" class="st0" d="M-65,900.5l-15,8l-47,35l42,44l90,22l25-6l55-17l-22-70l-5-5l-14-9l-18-3H5
		l-11,2l-10-1l-9,6l-9,1l-24-3L-65,900.5z"/>
	<path pointer-events="visiblePainted" class="st0" d="M-146,921.5l-42,24l2,13l3,4l16,10l5,9l4,16l6,4h17l11,7l30,26l1-1l20,26
		l11,8l5,2l91,10l73-24l-22-69l-66,21l-14,1l-86-19l-4-2l-57-60L-146,921.5z"/>
	<path pointer-events="visiblePainted" class="st0" d="M-81,647.5l-61,111l-9,145l1,9l4,9l19,22l47-35l15-8l-5-4l-17-21l-1-7l12-82
		l5-22l5-9l51-75l-46-15L-81,647.5z"/>
	<path pointer-events="visiblePainted" class="st0" d="M-158,578.5l-14,32l-11,11h2l-49,143l-2,21l-11,19v7l6,22l25,55l2,13l4,11
		l9,10l9,19v4l42-24l-4-9l-1-9l9-145l61-111l-67-64L-158,578.5z"/>
	<path pointer-events="visiblePainted" class="st0" d="M5,490.5l-111,12l-21-4l-31,80l10,5l8,9l79,73l46,15l38-49l10-9l12-7l-25-47
		L5,490.5z"/>
</g>
</svg>
